<?xml version="1.0" encoding="UTF-8" standalone="no"?>
<svg
   version="1.0"
   width="644.97827pt"
   height="571.46448pt"
   viewBox="0 0 644.97827 571.46448"
   preserveAspectRatio="xMidYMid"
   id="svg2"
   sodipodi:docname="Yasenegal2024.svg"
   inkscape:version="1.4 (86a8ad7, 2024-10-11)"
   xmlns:inkscape="http://www.inkscape.org/namespaces/inkscape"
   xmlns:sodipodi="http://sodipodi.sourceforge.net/DTD/sodipodi-0.dtd"
   xmlns="http://www.w3.org/2000/svg"
   xmlns:svg="http://www.w3.org/2000/svg">
  <defs
     id="defs2" />
  <sodipodi:namedview
     id="namedview2"
     pagecolor="#ffffff"
     bordercolor="#000000"
     borderopacity="0.25"
     inkscape:showpageshadow="2"
     inkscape:pageopacity="0.0"
     inkscape:pagecheckerboard="0"
     inkscape:deskcolor="#d1d1d1"
     inkscape:document-units="pt"
     inkscape:zoom="0.39081325"
     inkscape:cx="429.87283"
     inkscape:cy="379.97688"
     inkscape:window-width="1154"
     inkscape:window-height="755"
     inkscape:window-x="125"
     inkscape:window-y="46"
     inkscape:window-maximized="0"
     inkscape:current-layer="svg2" />
  <metadata
     id="metadata1">
Created by potrace 1.16, written by Peter Selinger 2001-2019
</metadata>
  <path
     style="fill:#ffd105;fill-opacity:1;fill-rule:evenodd;stroke:#ffffff;stroke-width:0.675"
     d="M 98.045515,131.41013 554.7854,200.49684 541.35188,359.78007 117.23627,480.68181 Z"
     id="path3" />
  <path
     d="M 191.57731,0.96041715 C 128.27731,10.160417 76.277305,54.960417 55.177305,118.56042 c -11.3,34.1 -28.9,109.7 -38,163.5 -14.0999996,83.6 -20.6999996,166.1 -15.2999996,192.7 8.5999996,42.5 34.2999996,74.3 71.7999996,88.8 12.8,4.9 24.8,7.1 42.100005,7.7 25.5,0.9 35.4,-0.8 77.3,-12.8 129.3,-37.2 261.1,-98.1 377.5,-174.4 28.7,-18.8 42.6,-31.5 55.1,-50.5 13.3,-20.1 19.2,-39 19.3,-62.5 0.1,-27.4 -7.6,-49.2 -25.4,-71.6 -18.4,-23.3 -75.6,-63 -146.5,-101.900003 -80.2,-44 -188.3,-88.3999999 -233.5,-95.9999999 -10.7,-1.79999995 -37.3,-2.09999995 -48,-0.59999995 z m -11.1,196.80000285 c -8.9,32.1 -12.6,66.2 -8.5,78.6 1.8,5.3 5.5,9.2 8.7,9.2 9.9,0 24,-37.8 30.8,-83 0.7,-4.1 1.4,-8.5 1.7,-9.8 l 0.4,-2.2 h 31.5 c 20.9,0 31.5,0.3 31.5,1 0,0.9 -9.7,46 -35.3,163.7 l -4.1,19.3 h -23.7 -23.7 l 0.5,-3.8 c 0.2,-2 2.1,-18 4.2,-35.5 l 3.7,-31.9 -3.5,4.4 c -6.3,7.6 -11.4,11.8 -19,15.6 -7.2,3.6 -7.9,3.7 -18,3.7 -9.9,0 -11.1,-0.2 -17.4,-3.2 -13,-6.2 -22.3,-17.8 -27.7,-34.8 -5.6,-17.4 -2.7,-62.7 5.9,-94.3 l 1.2,-4.2 h 31.4 31.4 z m 171.4,19.6 c 2.7,1.2 6.6,3.5 8.7,5.2 3.8,3 3.8,3 4.4,0.7 0.3,-1.2 0.6,-3.2 0.6,-4.5 v -2.2 h 26 c 15.6,0 26,0.4 26,0.9 0,0.6 -3.8,28.3 -8.5,61.7 -4.7,33.5 -8.5,61.2 -8.5,61.6 0,0.4 -11.7,0.8 -26,0.8 h -26 l 0.7,-4.6 0.6,-4.6 -5.4,3.6 c -18.2,12 -45.7,11 -60.2,-2.3 -9.9,-9.1 -14.1,-21.9 -14.1,-42.6 0.1,-21.5 4.1,-35.5 14.4,-50.8 8.3,-12.2 19.5,-20.4 33.2,-24.2 8.3,-2.3 27.9,-1.6 34.1,1.3 z m 162.3,-1.3 c 9.6,1.7 19.4,4.3 20.7,5.4 0.6,0.6 -1.6,18.8 -3.8,31.8 l -0.6,3.3 -3.9,-2 c -8.8,-4.5 -21,-7.3 -32.5,-7.4 -11.1,-0.1 -15.5,1 -15.5,3.8 0,2.6 3.9,4.7 16.9,9 20.8,7 29.7,13.6 34.2,25.5 3,7.9 2.4,21.2 -1.3,29.1 -6.5,13.9 -19.9,22.9 -41.2,27.7 -9.1,2 -34.3,2.2 -44.6,0.4 -9.7,-1.7 -26,-6.9 -26.6,-8.4 -0.4,-1.2 4.1,-36.5 4.8,-37.2 0.2,-0.2 3.9,1.4 8.3,3.6 11.2,5.5 21.8,8.1 34,8.3 10.8,0.1 14.5,-1 14.5,-4.4 0,-2.8 -3.2,-4.5 -16.1,-8.9 -19.8,-6.6 -28.4,-12.4 -33.7,-22.6 -2.4,-4.5 -2.7,-6.1 -2.7,-15.5 0,-9 0.4,-11.2 2.4,-15.2 6.6,-13.5 21,-22.6 41.2,-26.3 10.4,-1.9 34.6,-1.9 45.5,0 z m -276.6,177.2 c 0,0.5 -1.8,8.4 -3.9,17.8 l -3.7,17 -25.2,0.3 -25.2,0.2 v -2.2 c 0,-2.9 3.1,-30.9 3.6,-32.6 0.3,-0.9 6.6,-1.2 27.4,-1.2 14.8,0 27,0.3 27,0.7 z"
     id="path1"
     style="fill:#06377a;fill-opacity:1;stroke:none;stroke-width:0.1"
     sodipodi:nodetypes="ccccccccccccccccscccssccccccccssccccccccccscsscsscccccccccccccccsccccccsccsccscccsccccscss" />
  <path
     d="m 340.07731,247.66042 c -9.9,5.7 -16.5,21.7 -16.8,40.9 -0.3,14.9 3.9,23 12,23 12.5,0 22.3,-18.5 22.4,-42.2 0.1,-10.4 -1.7,-16.4 -5.9,-20.1 -2.5,-2.3 -9,-3.2 -11.7,-1.6 z"
     id="path2"
     style="fill:#06377a;fill-opacity:1;stroke:none;stroke-width:0.1" />
</svg>
